{
 "asset": {
  "version": "2.0",
  "generator": "kansei examples (index_ktx2)"
 },
 "extensionsUsed": [
  "KHR_texture_basisu"
 ],
 "extensionsRequired": [
  "KHR_texture_basisu"
 ],
 "scene": 0,
 "scenes": [
  {
   "nodes": [
    0
   ]
  }
 ],
 "nodes": [
  {
   "name": "Card",
   "mesh": 0
  }
 ],
 "meshes": [
  {
   "primitives": [
    {
     "attributes": {
      "POSITION": 0,
      "NORMAL": 1,
      "TEXCOORD_0": 2
     },
     "indices": 3,
     "material": 0
    }
   ]
  }
 ],
 "materials": [
  {
   "name": "Card",
   "pbrMetallicRoughness": {
    "baseColorTexture": {
     "index": 0
    },
    "metallicFactor": 0,
    "roughnessFactor": 1
   }
  }
 ],
 "textures": [
  {
   "extensions": {
    "KHR_texture_basisu": {
     "source": 0
    }
   }
  }
 ],
 "images": [
  {
   "name": "CardETC1S",
   "uri": "card_etc1s.ktx2",
   "mimeType": "image/ktx2"
  }
 ],
 "buffers": [
  {
   "byteLength": 140,
   "uri": "data:application/octet-stream;base64,"
  }
 ],
 "bufferViews": [
  {
   "buffer": 0,
   "byteOffset": 0,
   "byteLength": 48
  },
  {
   "buffer": 0,
   "byteOffset": 48,
   "byteLength": 48
  },
  {
   "buffer": 0,
   "byteOffset": 96,
   "byteLength": 32
  },
  {
   "buffer": 0,
   "byteOffset": 128,
   "byteLength": 12
  }
 ],
 "accessors": [
  {
   "bufferView": 0,
   "componentType": 5126,
   "count": 4,
   "type": "VEC3",
   "min": [
    -0.9,
    -0.9,
    0
   ],
   "max": [
    0.9,
    0.9,
    0
   ]
  },
  {
   "bufferView": 1,
   "componentType": 5126,
   "count": 4,
   "type": "VEC3"
  },
  {
   "bufferView": 2,
   "componentType": 5126,
   "count": 4,
   "type": "VEC2"
  },
  {
   "bufferView": 3,
   "componentType": 5123,
   "count": 6,
   "type": "SCALAR"
  }
 ]
}
